<?xml version="1.0" encoding="UTF-8"?>
<svg id="Réteg_2" data-name="Réteg 2" xmlns="http://www.w3.org/2000/svg" viewBox="0 0 1582 574">
  <defs>
    <style>
      .cls-1 {
        fill: #fff;
        stroke: #fff;
        stroke-miterlimit: 10;
      }
    </style>
  </defs>
  <path class="cls-1" d="m468.77,297c-.87-5.48-4.69-28.46-16-57-5.91-14.92-14.99-34.19-29-55-8.38-4.42-18.41-9-30-13-13.35-4.61-25.6-7.34-36-9-3,5.67-6,11.33-9,17-10.25-1.67-22.38-2.94-36-3-14.46-.06-27.28,1.25-38,3-3-5.67-6-11.33-9-17-12.33,1.89-22.77,4.52-31,7-16.61,5-28.14,10.59-31,12-.84.41-1.53.76-2,1-7.25,9.67-15.4,22-23,37-9.17,18.1-14.29,33.67-17,43-9.2,31.72-9.75,57.64-10,75-.18,12.79.4,23.45,1,31,7.14,5.34,15.13,10.75,24,16,20.22,11.96,39.52,19.78,56,25l18-27c-4.73-1.59-10.19-3.82-16-7-4.2-2.3-7.87-4.7-11-7,2.33-2,4.67-4,7-6,6.14,3.03,14.23,6.64,24,10,5.33,1.83,16.87,5.75,31,8,25.18,4.02,45.42.67,55-1,21.36-3.72,38.59-10.69,51-17,2.33,1.67,4.67,3.33,7,5-3.59,2.59-7.92,5.37-13,8-5.07,2.63-9.82,4.56-14,6,6,9.67,12,19.33,18,29,7.9-2.38,16.28-5.32,25-9,22.64-9.55,40.91-21.22,55-32,.85-6.6,1.69-15.09,2-25,.64-20.65-1.33-37.45-3-48Zm-182.19,9.78c-2.46,10.11-8.79,15.92-10,17-2.37,2.11-8.97,7.99-19,8-10.35,0-17.14-6.24-19-8-6.93-6.58-8.41-14.56-9-18-1.29-7.53.29-13.44,1-16,1.04-3.73,2.97-10.33,9-16,1.88-1.77,8.86-8.32,19-8,6.65.21,11.35,3.27,14,5,7.43,4.85,10.83,11.44,12,14,4.48,9.83,2.76,18.86,2,22Zm106.19.22c-2.46,10.11-8.79,15.92-10,17-2.37,2.11-8.97,7.99-19,8-10.35,0-17.14-6.24-19-8-6.93-6.58-8.41-14.56-9-18-1.29-7.53.29-13.44,1-16,1.04-3.73,2.97-10.33,9-16,1.88-1.77,8.86-8.32,19-8,6.65.21,11.35,3.27,14,5,7.43,4.85,10.83,11.44,12,14,4.48,9.83,2.76,18.86,2,22Z"/>
  <path class="cls-1" d="m722.77,266c-6.26-15.42-17.31-23.61-22-27-16.29-11.75-33.24-12.91-40-13-26.33.33-52.67.67-79,1v125h78c4.63-.14,11.31-.76,19-3,5.99-1.75,18.63-5.59,30-17,9.99-10.02,13.91-20.76,15-24,1.88-5.59,6.78-22.85-1-42Zm-45,34c-1.08,3.13-4.64,13.46-15,18-4.82,2.11-9.32,2.19-12,2h-26v-63h29c2.47.55,6.11,1.64,10,4,2.92,1.77,10.39,6.93,14,17,3.43,9.57,1.38,18,0,22Z"/>
  <path class="cls-1" d="m740.77,272v80h43v-80c-3.98,1.66-9.03,3.26-15,4-7.08.88-12.52.2-14,0-5.97-.82-10.74-2.54-14-4Z"/>
  <path class="cls-1" d="m761.77,258c6.94.41,12.02-3.26,13-4,.68-.51,7.9-6.12,8-15,.11-9.76-8.42-19.26-19-20-11.28-.79-22.29,8.56-22,20,.28,11.03,10.92,18.46,20,19Z"/>
  <path class="cls-1" d="m803.77,311v30c5.72,3.29,14.55,7.73,26,11,10.74,3.07,26.89,7.72,46,3,10.79-2.67,18.9-7.42,24-11,2.31-1.66,8.29-6.45,11-15,.36-1.15,1.9-6.27,1-13-.27-1.97-1.81-13.44-11-20-2.43-1.73-5.95-2.82-13-5-3.59-1.11-8.84-2.73-16-4-3.11-.55-9.83-1.61-18-4-2.14-.63-5.16-1.57-6-4-.59-1.7.03-3.69,1-5,2.15-2.9,6.36-2.94,14-3,5.29-.04,10.6.65,12.63.95.15.02.27.04.37.05,3.58.53,8.39,1.42,14,3,4.57,1.69,9.25,3.67,14,6,.67.33,1.34.66,2,1v-28c-5.02-2.61-12.12-5.75-21-8-9.86-2.5-17.54-2.79-24-3-13.05-.42-21.17-.68-31,3-5.19,1.95-13.84,5.19-20,14-1.92,2.75-6.52,9.53-6,19,.67,12.22,9.34,19.64,11,21,7.72,4.53,14.35,6.78,19,8,12.29,3.22,18.44,4.83,22,5,2.25.11,6.33.17,9,3,.23.25,2.88,3.1,2,6-.69,2.27-3.13,3.27-5,4-4.22,1.65-7.99,1.39-12,1-7.21-.71-10.81-1.06-15-2-5.16-1.15-13.04-2.98-22-8-3.95-2.22-6.99-4.42-9-6Z"/>
  <path class="cls-1" d="m1033.77,285v-31c-3.66-2.45-9.04-5.56-16-8-11.45-4.02-20.99-4.04-28-4-9.12.05-17.67.11-28,4-5.14,1.94-18.3,7.11-28,21-1.83,2.62-9.24,13.73-10,30-.21,4.6-.77,21.9,11,37,12.49,16.04,30.77,19.21,41,21,16.85,2.94,30.63-.39,37-2,8.99-2.27,16.1-5.45,21-8v-32c-2.55,1.44-6.28,3.33-11,5-11.96,4.25-21.84,4.12-25,4-6.16-.23-10.66-.39-16-3-2.99-1.46-10.03-4.9-13-13-.4-1.09-3.27-9.3,1-17,4-7.23,11.69-9.3,18-11,9.88-2.66,18.17-1.24,25,0,5.32.97,12.72,2.89,21,7Z"/>
  <path class="cls-1" d="m1178.77,281c-6.3-18.22-20.51-27.24-25-30-15.31-9.41-30.18-9.16-40-9-11.74.19-32.48.54-49,16-4.61,4.31-14.1,14.69-17,31-.64,3.58-3.34,20.86,7,38,7.91,13.11,19.16,19.02,25,22,32.8,16.7,68.39,1.84,81-7,4.47-3.13,7.69-6.66,8-7,9.01-9.97,11.16-21.24,12-26,2.53-14.31-1.15-25.53-2-28Zm-43,30c-3.09,6.06-8.11,9.01-10,10-9.43,4.93-18.63,1.53-20,1-1.06-.41-10.07-4.08-14-14-.73-1.84-2.98-7.77-1-15,1.85-6.75,6.28-10.56,8-12,1.84-1.54,7.57-6.18,16-6,9.61.21,15.67,6.53,17,8,6.76,7.47,8.57,19.04,4,28Z"/>
  <path class="cls-1" d="m1239.77,247h-42v105h43v-42c-.06-2.41.15-6.47,2-11,3.78-9.23,11.49-13.25,13-14,8.1-4.04,15.65-2.66,19-2,5.53,1.09,9.61,3.4,12,5v-39c-1.7-1.26-4.39-2.94-8-4-9.52-2.8-17.76.98-20,2-10.72,4.91-17.87,16.97-19,31v-31Z"/>
  <path class="cls-1" d="m1430.27,352c-.17-43-.33-86-.5-129h-43v45c-1.51-3.75-6.58-14.98-19-22-16.03-9.06-32.1-4.24-36-3-18.62,5.92-27.07,21.57-30,27-12.18,22.55-5.64,44.92-4,50,2.31,7.15,6.82,21.08,21,30,17.51,11.02,36.16,5.84,39,5,3.73-1.1,13.2-4.03,21-13,4.55-5.23,6.84-10.56,8-14v24h43.5Zm-54.5-32c-5.23,2.9-10.08,2.99-12,3-2.35.01-10.44.06-17-6-8.63-7.97-7.19-19.65-7-21,.27-1.91,1.32-8.67,7-14,7.51-7.05,18.77-7.55,27-4,1.97.85,9.67,4.33,13,13,2.88,7.52.65,14.17,0,16-.51,1.43-3.22,8.69-11,13Z"/>
</svg>