<?xml version="1.0" encoding="UTF-8"?>
<svg id="Réteg_2" data-name="Réteg 2" xmlns="http://www.w3.org/2000/svg" viewBox="0 0 827.56 782.43">
  <defs>
    <style>
      .cls-1 {
        fill: #1d1d1b;
        stroke: #1d1d1b;
        stroke-miterlimit: 10;
      }
    </style>
  </defs>
  <path class="cls-1" d="m493.25,139.98c-2.12,1.44-5.04,3.39-9.35,4.25-10.53,2.12-19.16-4.26-20.69-5.39-3.9-2.88-3.81-4.33-11.06-14.46-7.96-11.13-12.05-16.77-17.57-20.13-8.51-5.18-17.02-5.16-19.28-5.1-1.49.04-13,.52-22.39,8.79-4.36,3.83-3.22,4.91-9.64,11.91-3.61,3.94-7.84,8.55-14.46,12.47-5.32,3.15-12.87,7.63-21.83,6.52-6.11-.76-6.74-3.35-15.31-4.82-2.49-.43-7.84-1.3-13.89-.28-10.46,1.76-17.38,8.23-22.39,13.04-1.81,1.74-2.67,2.75-14.46,18.99,0,0-6.56,9.03-15.02,20.13-5.45,7.14-8.28,10.67-13.32,14.17-3.42,2.38-7.42,5.09-13.04,5.39-6.27.33-11.02-2.54-13.32-3.97-4.08-2.54-11.88-8.75-17.57-27.5-5.96-19.63-.61-23.36-5.95-41.39-3.11-10.5-6.38-21.5-16.16-28.91-19.25-14.59-47.07-2.67-49.89-1.42-4.69,2.09-23.2,10.33-28.35,28.91-.85,3.07-2.6,10.97,0,20.13,2.58,9.1,8.09,14.61,13.04,19.56,4.82,4.82,9.99,8.1,20.13,14.46,8.28,5.19,16.71,10,23.53,13.89,12.4,7.06,16.33,8.99,20.69,14.46,4.01,5.02,6.05,10.11,7.09,12.76,1.79,4.56,4.03,10.25,3.69,17.57-.49,10.62-6.09,18.03-7.94,20.41-5.91,7.61-13.17,10.97-20.69,14.46-11.59,5.37-14.39,3.5-22.11,8.79-3.19,2.18-9.44,6.47-13.04,14.46-6.74,14.96,1.58,30.18,1.98,30.9,3.08,5.43,4.89,4.83,9.35,12.47,2.8,4.79,5.83,9.98,6.52,17.29.32,3.34,1.09,11.5-3.97,18.71-4.47,6.38-11.08,8.54-16.16,10.2-4.64,1.52-6.67,1.35-22.68,2.55-16.05,1.2-18.26,1.69-20.98,3.4-7.89,4.98-10.04,14-10.49,16.16-.28,1.35-2.7,14.1,6.24,23.24.87.89,6.72,6.71,15.31,7.09,3.28.14,6.29-.85,12.19-2.83,11.25-3.79,11.33-5.65,16.72-6.52,1.72-.28,11.5-1.66,19.56,4.54,6.89,5.3,8.57,13.11,9.07,15.59,1.84,9.17-1.49,16.91-8.22,32.03-6.72,15.09-9.58,16.64-10.77,25.23-.27,1.94-1.38,10.92,2.27,21.54,5.59,16.29,18.35,24.7,21.83,26.93,6.41,4.1,15.29,7.79,20.41,9.92,6.63,2.76,10.5,3.93,14.74,7.94,1.56,1.48,6.02,5.69,7.65,12.19,2.91,11.55-5.18,21.96-7.94,25.51-2.8,3.6-6.03,6.6-20.69,15.31-10.17,6.04-18.52,11-32.88,17.86-17.29,8.26-19.94,8.12-29.48,14.17-10.46,6.64-16.1,10.23-20.41,17.57-9.07,15.47-3.47,32.74-2.55,35.43,1.22,3.57,6.19,18.14,20.69,24.94,18.96,8.9,38.5-2.86,42.24-5.1,10.4-6.26,15.86-15.12,26.36-32.6,13.36-22.24,12.25-28.06,25.51-47.34,11.44-16.63,19.03-22.14,22.39-24.38,5.87-3.91,17.62-11.74,32.88-9.92,3.14.37,15.33,1.83,22.68,11.06,2.31,2.9,2.7,4.76,7.37,22.39,4.97,18.76,5.63,20.81,7.94,23.81,1.33,1.72,9.43,11.84,20.13,11.91,2.55.01,3.61-.55,14.46-1.42,4.82-.38,6.69-.44,8.79.57.83.4,3.89,2.01,6.8,9.07,3.47,8.43,1.05,10.82,3.97,17.57,1.17,2.7,3.95,9.13,10.2,11.34,8.05,2.84,15.99-3.38,16.72-3.97,4.21-3.4,5.04-6.92,9.35-18.14,5.24-13.62,7.86-20.42,10.49-23.24,6.2-6.65,17.59-11.61,28.63-8.5,11.88,3.34,17.12,14.27,18.43,17.01,3.17,6.62,3.27,12.55,3.4,20.41.2,12.21-2.5,13.95-1.7,24.94.67,9.24,3.14,15.78,3.97,17.86,2.91,7.27,5.58,13.95,12.47,18.14,9.19,5.59,19.52,2.89,22.96,1.98,3.27-.86,11.3-3.08,17.29-10.77,6.2-7.95,6.26-16.66,6.24-19.56-.02-2.25-.28-5.95-7.09-21.83-6.14-14.33-7.94-16.01-10.49-24.38-2.89-9.49-4.4-14.45-2.83-20.69,2.24-8.93,10.04-17.56,19.28-18.99,4.76-.74,9.47,1.29,18.71,5.39,14.93,6.61,16.67,10.65,25.8,11.91,3.03.42,10.13,1.4,17.01-2.27,1.7-.91,6.83-3.93,13.61-17.86,7.23-14.86,4-16.79,8.79-23.24,8.17-11,24.27-14.38,35.72-13.32,5.39.5,5.19,1.56,21.54,7.09,17.63,5.96,26.44,8.94,32.6,8.22,12.08-1.41,24.61-9.78,29.76-21.83,3.39-7.94,2.62-15.24,1.98-21.26-.96-9.04-3.58-13.72-10.2-28.91-7.15-16.41-10.73-24.62-13.04-32.88-4.52-16.17-6.9-24.66-3.12-33.45,7.46-17.36,32.54-20.96,36.57-21.54,8.68-1.25,17.69.21,35.72,3.12,19.78,3.19,21.02,5.23,28.63,4.25,9.96-1.27,23.55-6.76,31.75-19.56,11.88-18.54,3.84-38.96,2.55-42.24-1.54-3.92-9.14-21.76-26.36-27.21-6.96-2.21-14.47-.84-29.2,1.98-23.34,4.47-29.72,8.94-47.62,9.64-15.88.62-20.98-2.5-23.81-5.39-4.42-4.5-7.25-12.41-4.54-17.86,2.11-4.23,6.15-4.12,20.98-10.49,13.36-5.74,15.17-8.01,16.16-9.92,2.92-5.63,1.52-13.48-2.55-18.14-3.34-3.83-7.56-4.45-14.46-5.95-20.6-4.49-30.91-6.73-34.58-12.76-3.55-5.81,1.75-8.94,1.13-22.96-.22-4.99-.98-22.34-12.19-32.03-8.11-7.02-14.21-3.55-23.81-12.76-2.68-2.57-6.97-6.79-8.79-13.32-2.46-8.87,2.08-13.23,2.55-22.39.59-11.58-5.59-25.24-15.59-31.75-10.88-7.07-27.77-6.64-39.12-2.55-3.69,1.33-8.34,3.61-14.46,2.55-.65-.11-9.49-1.75-12.47-7.94-3.87-8.03,4.46-18.92,9.07-24.94,9.09-11.89,15.48-13.04,35.43-30.05,9.14-7.79,13.78-11.79,17.01-16.72,10.53-16.1,9.03-33.77,8.79-36.28-2.08-21.13-16.69-41.65-38.55-49.32-1.92-.67-28.69-9.61-48.76,5.39-14.59,10.9-18.22,28.91-21.26,43.94-3.86,19.1-.87,30.4-8.33,48.1-1.78,4.22-5.84,12.83-14.63,18.79Z"/>
  <path class="cls-1" d="m695.08,205.18c-1.06.24-12.21,2.92-15.59,12.47-1.66,4.7-.72,9.04-.28,11.06.62,2.87,2.1,9.67,7.65,12.76,6.51,3.62,15.62.47,20.69-5.1,4.63-5.09,6.92-13.32,3.4-20.69-2.88-6.04-8.97-10.06-15.87-10.49Z"/>
  <path class="cls-1" d="m437.98,56.27c2.5-.42,11.13-2.2,16.63-9.83,3.62-5.02,4.17-10.21,4.54-13.61.19-1.77.82-9-2.65-17.39-2-4.84-3.95-9.56-8.69-12.47-7.27-4.46-17.4-2.4-23.81,2.27-10.38,7.56-9.97,21.17-9.83,25.7.15,4.77.5,16.39,9.45,22.3,5.56,3.67,11.72,3.33,14.36,3.02Z"/>
  <path class="cls-1" d="m349.16,97.09c1.19-12.27.93-22.62.38-30.24-1.02-14.1-3.42-23.91-5.67-32.88-4.02-16.09-7.19-21.33-11.34-25.32-5.31-5.12-10.46-6.49-11.72-6.8-2.67-.65-12.54-2.57-18.52,3.4-5.66,5.65-4.16,14.68-3.4,19.28.87,5.26,2.94,10.79,12.09,23.06,9.83,13.17,14.62,16.42,23.43,27.59,4.68,5.94,9.78,13.2,14.74,21.92Z"/>
  <path class="cls-1" d="m56.62,416.83c-2.78-1.93-7.68-4.8-14.36-6.05-14.5-2.72-25.72,4.36-28.72,6.43-4.27,2.94-10.66,7.33-12.47,15.5-.31,1.41-1.81,8.17,1.89,13.98,5.62,8.83,18.77,8.5,26.08,8.31,4.08-.1,10.02-.32,16.63-3.78,7.41-3.88,11.15-9.48,12.09-10.96,2.35-3.7,6.01-9.45,4.16-15.87-1.12-3.87-3.76-6.35-5.29-7.56Z"/>
  <path class="cls-1" d="m309.85,707.48c-2.16-.71-3.95,6.72-13.61,13.98-5.72,4.3-7.51,3.5-17.88,9.02-10.93,5.81-16.4,8.71-20,14.36-6.49,10.19-3.57,21.43-3.32,22.35.83,2.98,2.63,9.51,8.69,12.85,5.3,2.92,10.82,1.73,13.61,1.13,1.72-.37,7.98-1.9,14.74-8.69,5.35-5.38,8.95-11.98,12.85-25.7,4.37-15.36,8.67-38.08,4.91-39.31Z"/>
  <path class="cls-1" d="m754.32,550.25c-10.63-.78-18.47,8.15-21.54,15.12-4.49,10.2-1.87,23.21,6.43,29.86,1.21.97,6.03,4.6,12.85,4.54,11.67-.11,18.21-10.92,18.9-12.09,4.96-8.5,3-17.06,2.65-18.52-1.88-7.67-8.39-18.1-19.28-18.9Z"/>
  <path class="cls-1" d="m767.55,329.91c-4.65,1.06-12.61,2.88-17.39,9.83-1.16,1.69-3.82,5.56-3.02,10.2.95,5.51,6.16,8.52,9.07,10.2,5.47,3.16,10.7,3.33,13.98,3.4,6.24.13,10.73-1.46,15.12-3.02,7.07-2.51,9.68-5.09,10.58-6.05,1-1.06,2.5-2.68,3.4-5.29.2-.56,1.71-5.15-.38-9.83-1.89-4.23-5.62-6.09-8.69-7.56-9.79-4.69-19.56-2.6-22.68-1.89Z"/>
</svg>