<?xml version="1.0" encoding="UTF-8"?>
<svg id="Réteg_1" data-name="Réteg 1" xmlns="http://www.w3.org/2000/svg" viewBox="0 0 601 601">
  <defs>
    <style>
      .cls-1 {
        fill: #2000ff;
        stroke: #2000ff;
      }

      .cls-1, .cls-2, .cls-3 {
        stroke-miterlimit: 10;
      }

      .cls-2 {
        stroke: #000;
      }

      .cls-3 {
        fill: #fff;
        stroke: #fff;
      }
    </style>
  </defs>
  <rect class="cls-2" x=".5" y=".5" width="600" height="600" rx="71.77" ry="71.77"/>
  <g>
    <path class="cls-1" d="m273.48,490.13c-.65-37.14-2.07-131.24,0-174.41.12-2.44.4-7.79,1.57-14.72,1.05-6.25,6.82-37.54,32.88-66.38,23.1-25.57,49.85-35.62,62.62-39.45,13.4-4.02,45.44-11.42,82.66.94,28.91,9.6,48.02,26.81,58.55,38.51,8.41,9.35,26.31,31.82,32.88,65.76,11.28,58.27-20.09,102.45-24.42,108.34-24.21,32.93-55.9,44.97-63.25,47.59-55.19,19.68-103.54-4.87-112.1-9.39-19,15.55-37.99,31.1-56.99,46.65-.63.82-1.84,2.13-3.76,2.82-3.15,1.14-6.89.13-9.71-2.5-.31-1.25-.63-2.5-.94-3.76Z"/>
    <path class="cls-3" d="m327.52,404.99c.65-37.14,2.07-131.24,0-174.41-.12-2.44-.4-7.79-1.57-14.72-1.05-6.25-6.82-37.54-32.88-66.38-23.1-25.57-49.85-35.62-62.62-39.45-13.4-4.02-45.44-11.42-82.66.94-28.91,9.6-48.02,26.81-58.55,38.51-8.41,9.35-26.31,31.82-32.88,65.76-11.28,58.27,20.09,102.45,24.42,108.34,24.21,32.93,55.9,44.97,63.25,47.59,55.19,19.68,103.54-4.87,112.1-9.39,19,15.55,37.99,31.1,56.99,46.65.63.82,1.84,2.13,3.76,2.82,3.15,1.14,6.89.13,9.71-2.5.31-1.25.63-2.5.94-3.76Z"/>
    <g>
      <path class="cls-1" d="m229.2,276.82c.07-27.21.14-54.41.21-81.62-.54-1.85-1.23-3.81-2.09-5.84-2.45-5.81-5.55-10.37-8.35-13.78.07,15.17.14,30.34.21,45.51-.16.61-.49,1.58-1.25,2.5-.41.5-2.38,2.72-5.22,2.3-2.04-.31-3.75-1.86-4.38-3.97v-53.23c-1.08-.76-2.54-1.63-4.38-2.3-3.27-1.18-6.17-1.19-7.93-1.04.07,18.86.14,37.71.21,56.57-.1.66-.41,1.93-1.46,2.92-1.79,1.69-4.73,1.67-6.68.42-1.25-.8-1.84-1.94-2.09-2.5v-58.45c-1.8,0-4.51.25-7.51,1.46-1.72.7-3.11,1.54-4.17,2.3v54.07c-.21.7-.42,1.39-.63,2.09-.21.31-1.4,2-3.55,2.3-2.11.29-4.28-.86-5.43-2.92-.07-16.35-.14-32.7-.21-49.06-1.76,1.52-3.77,3.58-5.64,6.26-4.19,6.05-5.43,12.12-5.84,15.66v78.91c.06,2.22.36,5.3,1.46,8.77,3.78,11.88,14.55,20.57,25.88,23.8,2.18.62,18.8,5.04,33.61-5.84,12.37-9.09,14.8-22.5,15.24-25.26Z"/>
      <path class="cls-1" d="m142.37,280.57v-23.34c.27-1.54-.21-2.42-.42-2.73-1.39-2.14-5.6-2.27-7.31-.21-.68.82-.82,1.83-.84,2.52.07,8.34.14,16.68.21,25.02,1,6.84,2.96,12.16,4.59,15.77,1.79,3.96,8.63,18.53,24.84,26.91,5.5,2.84,10.52,4.17,13.99,4.84v4.05c-.01.22-.01.53.05.89.22,1.26,1.01,2.07,1.3,2.37,1.2,1.19,2.74,1.5,3.91,1.73.26.05.48.09.63.11-.02,1.91-.03,3.82-.05,5.73-.49,0-1.24.03-2.09.32-.04.01-.22.07-.43.15-.18.07-1.45.6-2.3,1.56-1.33,1.5-1.21,3.57-1.19,3.97.03.56.16,2.6,1.66,3.81,1.1.88,2.64,1.06,3.67,1.19.24.03.43.04.57.05.05,7.6.1,15.21.16,22.81h15.13c.07-7.69.14-15.38.21-23.07.58.04,1.42.05,2.4-.11.94-.15,1.61-.26,2.35-.74,1.09-.71,1.56-1.73,1.72-2.1.55-1.25.43-2.36.36-3.04-.09-.86-.19-1.8-.88-2.68-.81-1.04-1.94-1.35-2.72-1.57-.96-.27-1.79-.27-2.33-.23v-5.94c.55-.09,1.31-.29,2.15-.7.96-.47,1.57-1.02,1.71-1.14.82-.74,1.32-1.55,1.62-2.15v-4.36c2.75-.78,6.53-2.05,10.8-4.1,5.1-2.44,13.49-6.47,20.77-15.4,2.28-2.79,8.95-11.5,11.17-24.33.37-2.13.54-3.93.62-5.2-.02-8.04-.03-16.08-.05-24.12-.07-.38-.35-1.73-1.57-2.73-.3-.24-1.25-1.01-2.66-1-1.45.01-2.41.84-2.79,1.18-1.03.92-1.38,2.04-1.49,2.5-.05,7.74-.1,15.49-.16,23.23-.01,1.49-.16,2.91-.47,4.78-1.29,7.8-4.75,13.17-6.58,15.93-4.33,6.55-9.2,10.29-10.33,11.14-6.61,4.95-13.23,6.87-17.27,7.67-.38.1-1.15.24-2.04-.05-1.71-.56-2.32-2.25-2.4-2.47-6.09-.04-12.18-.07-18.27-.11-.64,1-1.76,2.39-3.55,3.1-3.05,1.22-6.12-.28-10.1-2.31-1.09-.55-5.65-2.94-10.65-7.65-.69-.65-3.64-3.47-6.81-7.81-1.34-1.83-2.37-3.46-3.13-4.73-.73-1.3-1.67-3.1-2.67-5.32-.79-1.75-1.51-3.27-2.03-5.2-.73-2.72-.96-5.06-1.04-6.67Z"/>
    </g>
    <g>
      <circle class="cls-3" cx="377.49" cy="340.38" r="18.26"/>
      <path class="cls-3" d="m376.71,300.45c.34,5.54-.7,11.65-4.62,17.93-2.93,4.69-6.8,8.16-8.3,9.96,10.05,1.37,19.83,2.78,29.11,2.24l-16.19-30.13Z"/>
    </g>
    <g>
      <circle class="cls-3" cx="422.52" cy="340.38" r="18.26"/>
      <path class="cls-3" d="m421.74,300.45c.34,5.54-.7,11.65-4.62,17.93-2.93,4.69-6.8,8.16-8.3,9.96,10.05,1.37,19.83,2.78,29.11,2.24l-16.19-30.13Z"/>
    </g>
    <g>
      <circle class="cls-3" cx="467.55" cy="340.38" r="18.26"/>
      <path class="cls-3" d="m466.77,300.45c.34,5.54-.7,11.65-4.62,17.93-2.93,4.69-6.8,8.16-8.3,9.96,10.05,1.37,19.83,2.78,29.11,2.24l-16.19-30.13Z"/>
    </g>
  </g>
</svg>