<?xml version="1.0" encoding="UTF-8"?>
<svg id="Réteg_2" data-name="Réteg 2" xmlns="http://www.w3.org/2000/svg" viewBox="0 0 1920 1081">
  <defs>
    <style>
      .cls-1 {
        fill: #fff;
        stroke: #fff;
        stroke-miterlimit: 10;
      }
    </style>
  </defs>
  <path class="cls-1" d="m670.8,535.65c-.76-65.63-30.6-111.28-41.35-126.29-12.07-16.85-41.42-52.82-93.29-74.76-16.14-6.82-58.19-22.33-112.44-15.68-37.52,4.59-66.45,18.01-84.74,28.72-15.56,9.12-38.03,24.83-58.87,50.11-32.11,38.95-42.89,79.41-46.85,100.63-2.98,15.98-3.54,28.77-3.67,35.04-1.45,70.34,34.26,123.21,39.52,130.78,52.14,75.04,132.93,89.85,145.03,91.87,71.59,11.93,126.41-15.6,142.18-24.24,50.75-27.82,76.41-68.04,85.96-84.94,26.52-46.96,28.75-91.16,28.52-111.22Zm-121.81,93.7c-.97,5.82-5.88,8.79-7.33,9.57-5.79,3.13-11.51,1.15-12.43.81-3.1-1.89-7.24-4.31-12.22-6.93-4.82-2.53-15.93-8.12-29.74-12.83-20.2-6.9-37.28-8.89-47.05-9.98-26.07-2.9-46.17-1.07-59.28.2-17.59,1.7-33.5,4.68-47.46,8.15-1.41.02-6.04-.1-10.19-3.46-1-.81-5.11-4.15-5.5-9.78-.29-4.16,1.62-7.19,2.24-8.15,2.5-3.86,6.14-5.29,7.33-5.7,39.02-9.99,71.99-11.07,94.52-10.18,17.3.68,41.53,1.81,71.5,11.61,21.13,6.91,37.73,15.72,49.3,22.81.65.48,1.54,1.21,2.44,2.24.89,1.01,4.88,5.57,3.87,11.61Zm24.24-55.2c-.86,1.48-5.11,8.36-13.04,8.96-4.33.33-7.7-1.37-9.17-2.24-2.61-1.7-6.29-3.99-10.8-6.52-5.48-3.07-18.71-10.12-39.52-16.7-23.39-7.4-42.47-9.81-53.98-11.2-28.69-3.48-50.36-2.4-56.42-2.04-21.8,1.29-37.15,4.65-41.76,5.7-7.9,1.81-14.49,3.74-19.35,5.3-1.04.18-7.99,1.24-14.06-3.67-.67-.54-6.23-5.2-6.52-13.04-.07-1.85.08-6.03,2.85-10.19,2.69-4.02,6.32-5.73,7.74-6.31,10.02-3,22.67-6.24,37.48-8.76,20.96-3.57,38.65-4.41,50.93-4.48,22.02-.14,39,2.09,52.15,3.87,6.17.83,10.67,1.44,16.91,2.65,21.09,4.08,36.35,10.03,47.05,14.26,12.32,4.87,27.68,11.84,44.61,21.8,1.46.91,4.35,2.98,6.11,6.72,3.5,7.42-.55,14.72-1.22,15.89Zm32.39-73.33c-.38,1.12-3.06,8.69-11,12.43-5.2,2.45-9.93,1.96-11,1.83-3.56-.43-6.23-1.75-7.74-2.65-9.63-5.31-23.51-12.24-40.94-18.54-30.79-11.11-55.97-14.2-73.94-16.3-27.69-3.23-48.82-2.65-62.13-2.24-5.87.18-25.55.91-44.61,4.07-11.8,1.96-22.62,4.73-23.22,4.89-4.17,1.08-7.65,2.09-10.19,2.85-2.01.55-5.8,1.3-10.39.41-1.84-.36-6.17-1.25-9.98-4.69-6.8-6.13-6.39-15.3-6.31-16.91.11-2.36.42-9.39,5.91-14.06,2.31-1.97,4.75-2.84,6.31-3.26,4.94-1.87,12.26-4.37,21.39-6.52,5.17-1.22,9.24-1.92,12.43-2.44,15.12-2.48,28.51-4.68,46.65-5.91,5.51-.37,28.28-1.8,58.46.41,23.91,1.75,42,5,48.89,6.31,22.82,4.34,39.8,9.56,46.24,11.61,8.67,2.76,20.03,6.42,34.43,13.04,9.2,4.23,16.77,8.34,22.41,11.61,1.6,1.02,5.65,3.9,7.94,9.37,2.72,6.48,1.18,12.36.41,14.67Z"/>
  <path class="cls-1" d="m863,490.5l21-30c-5.7-4.75-13.33-10.2-23-15-16.36-8.13-30.48-10.38-35-11-13.2-1.82-34.15-4.72-55,7-5.73,3.22-20.44,11.78-28,30-1.03,2.49-10.48,26.33,2,49,8.77,15.93,23.64,22.67,31,26,7.95,3.6,16.3,5.4,33,9,7.11,1.53,18.61,3.77,31,11,5.34,3.12,7.73,5.69,9,9,2.79,7.28-1.22,16.02-6,21-2.54,2.65-5.08,4-7,5-3.75,1.95-9.75,4.19-21,4-5.33-.09-16.58-.39-30-6-15.12-6.32-24.86-15.99-30-22-8,9.33-16,18.67-24,28,2.06,2.38,5.06,5.58,9,9,10.93,9.47,21.43,13.89,29,17,5.22,2.15,14.75,6,28,8,16.53,2.5,29.51.72,34,0,13.31-2.13,26.66-4.27,39-15,12.62-10.98,16.81-24.55,18-29,1.52-5.66,5.78-25.02-5-43-7.34-12.24-18.08-17.85-26-22-7.8-4.09-19.54-7.06-43-13-14.28-3.62-22.46-5.33-29-13-1.8-2.11-6.69-7.84-6-15,1.17-12.14,17.39-18.09,20-19,10.78-3.74,20.27-1.32,29,1,15.32,4.07,26.97,11.93,35,19Z"/>
  <path class="cls-1" d="m1040,504.5c-3.62-3.95-16.87-18-39-22-5.15-.93-27.64-5-47,9-6.96,5.03-11.37,10.85-14,15,.33-7.33.67-14.67,1-22h-39v197c13,.33,26,.67,39,1-.33-21-.67-42-1-63,2.46,2.95,6.38,7.11,12,11,19.9,13.76,42.13,10.95,48,10,5.71-.93,19.79-3.96,33-15,22.69-18.96,25.17-46.76,26-56,.75-8.42,3.6-40.34-19-65Zm-21,70c-1.18,4.53-4.54,17.43-17,26-1.56,1.07-17.85,11.88-36,5-13.56-5.14-19.42-16.85-22-22-1.8-3.6-8.35-17.2-4-34,.82-3.16,6.02-21.87,24-30,2.78-1.26,11.69-5.14,23-3,12.14,2.29,19.35,10.06,22,13,16.52,18.31,10.37,43.59,10,45Z"/>
  <path class="cls-1" d="m1223,522.5c-14.81-26.74-44.09-41.79-72-41-41.27,1.17-83.25,37.08-81,84,1.98,41.32,37.44,74.3,78,76,37.84,1.59,70.53-24.47,81-57,10.21-31.72-4.19-58.73-6-62Zm-38,70c-8.55,10.11-22.94,17.07-38,15-16.03-2.2-25.31-13.6-28-17-7.61-9.64-9.54-19.97-10-26-.22-2.93-1.71-27.86,17-41,9.93-6.98,20.42-7.03,24-7,1.34.01,20.89.49,34,16,13.66,16.16,15.47,42.88,1,60Z"/>
  <path class="cls-1" d="m1293,444.5h-40v40h-18v33h19v83c-.34,4.08-.4,12.03,4,20,6.85,12.4,19.7,16.16,26,18,22.58,6.6,42.62-3.94,48-7v-33c-2.51,1.73-6.57,4.18-12,6-6.5,2.18-13.89,4.66-20,1-1.34-.8-5.07-3.37-7-10v-77h38v-34h-38v-40Z"/>
  <path class="cls-1" d="m1347.5,638c12.67-.33,25.33-.67,38-1,.33-50.67.67-101.33,1-152h-38c-.33,51-.67,102-1,153Z"/>
  <path class="cls-1" d="m1367,465.5c13.26.73,26-10.01,26-24,0-14.18-13.09-24.5-26-24-10.72.42-20.88,8.27-23,19-2.69,13.64,8.35,28.2,23,29Z"/>
  <path class="cls-1" d="m1487,672.5c4.5,2.78,11.25,6.38,20,9,3.91,1.17,8.66,2.6,15,3,4.82.31,19.06,1.01,32-8,5.19-3.62,8.22-7.43,11-11,8-10.26,11.42-20.55,13-27,19.67-51,39.33-102,59-153h-41l-36,102c-13.33-34-26.67-68-40-102h-61c-.27-2.17-.46-5.29,0-9,.21-1.68.41-3.24,1-5,.27-.81,2.83-8.02,10-11,3.42-1.42,6.33-1.23,10-1,5.13.33,9.01,1.82,12,3,3.41,1.34,6.1,2.83,8,4v-35c-4.1-1.35-9.91-2.97-17-4-8.8-1.27-17.21-2.49-27,0-4.12,1.05-18.05,4.6-27,18-6.75,10.11-7.12,20.52-7,25v16h-20v33h20c-.33,39.67-.67,79.33-1,119h40c-.33-39.67-.67-79.33-1-119h30c17,38.67,34,77.33,51,116-.54,1.48-1.47,3.64-3,6-1.54,2.38-3.93,6.06-8,8-1.22.58-3.83,1.6-10,1-4.16-.41-11.02-1.65-19-6-4.67,9.33-9.33,18.67-14,28Z"/>
  <path class="cls-1" d="m1690,503.5c-2.35-11.48-13.54-20.42-26-20-13.18.44-24.73,11.25-25,25-.28,14.39,11.94,25.7,25,26,15.95.36,29.12-15.77,26-31Zm-27,26c-10.57-.74-19.02-10.25-19-21,.02-10.83,8.64-20.72,20-21,11.45-.28,20.51,9.35,21,20,.55,12.05-9.97,22.84-22,22Z"/>
  <path class="cls-1" d="m1675,508.5c1.22-2.18,1.06-4.26,1-5-.04-.49-.34-3.81-3-6-1.61-1.32-3.35-2-6-2h-13v25h6v-8h4c2,2.67,4,5.33,6,8h6c-2-2.67-4-5.33-6-8,.66-.21,3.41-1.15,5-4Zm-8-1h-7v-7h7c1.3.09,2.45.86,3,2,.42.88.53,2.08,0,3-.8,1.38-2.99,2-3,2Z"/>
</svg>